<svg width="614" height="159" viewBox="0 0 614 159" fill="none" xmlns="http://www.w3.org/2000/svg">
<path d="M88.4061 158.059C141.615 158.059 174.936 140.842 174.936 105.337V105.123C174.936 81.0616 161.713 69.0842 139.287 64.2718C116.756 59.5664 88.5119 58.0692 73.5966 56.0373C58.5755 53.8985 54.0268 51.8666 54.0268 45.8779C54.0268 39.5683 61.0085 36.0393 80.7898 36.0393C91.5341 36.0393 100.014 36.9249 106.276 39.1524C117.624 43.1885 128.294 54.2193 140.309 54.2193H144.551C158.509 54.2193 170.393 41.364 162.938 29.3012C150.759 9.59554 123.715 1.18225e-05 82.0592 1.18225e-05C29.0622 1.18225e-05 0.18358 18.0731 0.18358 50.4764V50.6902C0.18358 75.7145 14.3584 86.1948 36.1496 91.1141C57.9408 95.9264 86.8193 97.6375 101.312 99.5625C115.804 101.487 121.093 103.84 121.093 110.47C121.093 117.956 113.582 122.02 90.3102 122.02C77.0593 122.02 66.3801 120.678 58.8666 117.137C47.6359 111.843 37.1552 100.204 24.7882 100.204H21.0136C7.14755 100.204 -4.73336 112.758 1.88483 125.214C14.2205 148.431 43.9364 158.059 88.4061 158.059Z" fill="white"/>
<path d="M194.302 2.45966C180.907 2.45966 170.049 13.5602 170.049 27.2533V130.806C170.049 144.499 180.907 155.6 194.302 155.6H295.473C306.884 155.6 316.134 146.144 316.134 134.479V134.479C316.134 122.814 306.884 113.358 295.473 113.358H248.146C234.751 113.358 223.892 102.257 223.892 88.5643V27.2533C223.892 13.5601 213.033 2.45966 199.638 2.45966H194.302Z" fill="white"/>
<path d="M374.817 158.059C435.113 158.059 471.396 131.859 471.396 79.5644V78.495C471.396 26.2006 435.113 0 374.817 0C314.521 0 278.237 26.2006 278.237 78.495V79.5644C278.237 131.859 314.521 158.059 374.817 158.059ZM374.817 116.459C343.399 116.459 333.879 101.38 333.879 79.5644V78.495C333.879 56.6789 343.399 41.6002 374.817 41.6002C406.34 41.6002 415.86 56.6789 415.86 78.495V79.5644C415.86 101.38 406.34 116.459 374.817 116.459Z" fill="white"/>
<path d="M474.233 44.7015C487.628 44.7015 498.487 55.802 498.487 69.4951V130.806C498.487 144.499 509.345 155.6 522.74 155.6H528.076C541.471 155.6 552.33 144.499 552.33 130.806V69.4951C552.33 55.802 563.189 44.7015 576.584 44.7015H593.34C604.751 44.7015 614.001 35.2454 614.001 23.5806V23.5806C614.001 11.9158 604.751 2.45966 593.34 2.45966L457.476 2.45966C446.066 2.45966 436.815 11.9158 436.815 23.5806V23.5806C436.815 35.2454 446.066 44.7015 457.476 44.7015H474.233Z" fill="white"/>
</svg>
